<svg width="0" height="0" class="hidden">
  <svg id="united-states-of-america" xmlns="http://www.w3.org/2000/svg" viewBox="0 0 512 512">
    <path fill="#bd3d44" d="M0 0h512v512H0"/>
    <path stroke="#fff" stroke-width="40" d="M0 58h512M0 137h512M0 216h512M0 295h512M0 374h512M0 453h512"/>
    <path fill="#192f5d" d="M0 0h390v275H0z"/>
    <marker id="a" markerHeight="30" markerWidth="30">
      <path fill="#fff" d="m15 0 9.3 28.6L0 11h30L5.7 28.6"/>
    </marker>
    <path fill="none" marker-mid="url(#a)" d="m0 0 18 11h65 65 65 65 66L51 39h65 65 65 65L18 66h65 65 65 65 66L51 94h65 65 65 65L18 121h65 65 65 65 66L51 149h65 65 65 65L18 177h65 65 65 65 66L51 205h65 65 65 65L18 232h65 65 65 65 66L0 0"/>
  </svg>
    
  <svg xmlns="http://www.w3.org/2000/svg" viewBox="0 0 512 512" id="united-kingdom">
    <path fill="#012169" d="M0 0h512v512H0z"/>
    <path fill="#FFF" d="M512 0v64L322 256l190 187v69h-67L254 324 68 512H0v-68l186-187L0 74V0h62l192 188L440 0z"/>
    <path fill="#C8102E" d="m184 324 11 34L42 512H0v-3l184-185zm124-12 54 8 150 147v45L308 312zM512 0 320 196l-4-44L466 0h46zM0 1l193 189-59-8L0 49V1z"/>
    <path fill="#FFF" d="M176 0v512h160V0H176zM0 176v160h512V176H0z"/>
    <path fill="#C8102E" d="M0 208v96h512v-96H0zM208 0v512h96V0h-96z"/>
  </svg>

  <svg xmlns="http://www.w3.org/2000/svg" viewBox="0 0 512 512" id="france">
    <path fill="#fff" d="M0 0h512v512H0z"/>
    <path fill="#002654" d="M0 0h170.7v512H0z"/>
    <path fill="#ce1126" d="M341.3 0H512v512H341.3z"/>
  </svg>

  <svg id="ukraine" xmlns="http://www.w3.org/2000/svg" viewBox="0 0 512 512">
    <g fill-rule="evenodd" stroke-width="1pt">
      <path fill="gold" d="M0 0h512v512H0z"/>
      <path fill="#0057b8" d="M0 0h512v256H0z"/>
    </g>
  </svg>

  <svg id="united-arab-emirates" xmlns="http://www.w3.org/2000/svg" viewBox="0 0 512 512">
    <path fill="#00732f" d="M0 0h512v170.7H0z"/>
    <path fill="#fff" d="M0 170.7h512v170.6H0z"/>
    <path d="M0 341.3h512V512H0z"/>
    <path fill="red" d="M0 0h180v512H0z"/>
  </svg>

  <svg id="argentina" xmlns="http://www.w3.org/2000/svg" xmlns:xlink="http://www.w3.org/1999/xlink" viewBox="0 0 512 512">
    <path fill="#74acdf" d="M0 0h512v512H0z"/>
    <path fill="#fff" d="M0 170.7h512v170.7H0z"/>
    <g id="c" transform="translate(-153.6) scale(1.024)">
      <path id="a" fill="#f6b40e" stroke="#85340a" stroke-width="1.1" d="m396.8 251.3 28.5 62s.5 1.2 1.3.9c.8-.4.3-1.6.3-1.6l-23.7-64m-.7 24.2c-.4 9.4 5.4 14.6 4.7 23-.8 8.5 3.8 13.2 5 16.5 1 3.3-1.2 5.2-.3 5.7 1 .5 3-2.1 2.4-6.8-.7-4.6-4.2-6-3.4-16.3.8-10.3-4.2-12.7-3-22"/>
      <use xlink:href="#a" width="100%" height="100%" transform="rotate(22.5 400 250)"/>
      <use xlink:href="#a" width="100%" height="100%" transform="rotate(45 400 250)"/>
      <use xlink:href="#a" width="100%" height="100%" transform="rotate(67.5 400 250)"/>
      <path id="b" fill="#85340a" d="M404.3 274.4c.5 9 5.6 13 4.6 21.3 2.2-6.5-3.1-11.6-2.8-21.2m-7.7-23.8 19.5 42.6-16.3-43.9"/>
      <use xlink:href="#b" width="100%" height="100%" transform="rotate(22.5 400 250)"/>
      <use xlink:href="#b" width="100%" height="100%" transform="rotate(45 400 250)"/>
      <use xlink:href="#b" width="100%" height="100%" transform="rotate(67.5 400 250)"/>
    </g>
    <use xlink:href="#c" width="100%" height="100%" transform="rotate(90 256 256)"/>
    <use xlink:href="#c" width="100%" height="100%" transform="rotate(180 256 256)"/>
    <use xlink:href="#c" width="100%" height="100%" transform="rotate(-90 256 256)"/>
    <circle cx="256" cy="256" r="28.4" fill="#f6b40e" stroke="#85340a" stroke-width="1.5"/>
    <path id="h" fill="#843511" stroke-width="1" d="M265.7 250c-2 0-3.8.8-4.9 2.5 2.2 2 7 2.2 10.3-.2a7.5 7.5 0 0 0-5.4-2.4zm0 .4c1.9 0 3.6.8 3.9 1.7-2.2 2.4-5.7 2.2-7.9.4 1-1.5 2.5-2.1 4-2.1z"/>
    <use xlink:href="#d" width="100%" height="100%" transform="matrix(-1 0 0 1 512.3 0)"/>
    <use xlink:href="#e" width="100%" height="100%" transform="matrix(-1 0 0 1 512.3 0)"/>
    <use xlink:href="#f" width="100%" height="100%" transform="translate(19.3)"/>
    <use xlink:href="#g" width="100%" height="100%" transform="matrix(-1 0 0 1 512.3 0)"/>
    <path fill="#85340a" d="M251.6 260a2 2 0 1 0 2 3c.8.6 1.8.6 2.4.6h.3c.5 0 1.6 0 2.3-.6.4.5 1 .8 1.6.8a2 2 0 0 0 .4-3.9c.5.2.9.7.9 1.3a1.3 1.3 0 0 1-2.7 0 3 3 0 0 1-2.7 1.8 3.3 3.3 0 0 1-2.7-1.8c0 .7-.6 1.3-1.3 1.3a1.3 1.3 0 0 1-.4-2.6zM253.8 265.8c-2.2 0-3 2-5 3.3 1-.5 2-1.3 3.5-2.2 1.5-.9 2.8.2 3.7.2.9 0 2.2-1.1 3.7-.2 1.5.9 2.4 1.7 3.5 2.2-2-1.4-2.8-3.3-5-3.3a6 6 0 0 0-2.2.6c-1-.4-1.8-.6-2.2-.6z"/>
    <path fill="#85340a" d="M253 268.3c-.8 0-2 .3-3.6.8 4-1 4.8.4 6.6.4 1.7 0 2.6-1.3 6.6-.4-4.4-1.4-5.3-.5-6.6-.5-.9 0-1.5-.3-3-.3z"/>
    <path fill="#85340a" d="M249.6 269h-.8c4.6.5 2.4 3.1 7.2 3.1 4.8 0 2.6-2.6 7.2-3-4.8-.5-3.3 2.4-7.2 2.4-3.7 0-2.6-2.5-6.4-2.5z"/>
    <path fill="#85340a" d="M260 276.1a4 4 0 0 0-8 0 4 4 0 0 1 8 0z"/>
    <path id="e" fill="#85340a" stroke-width="1" d="M238.3 249.9c5-4.4 11.4-5 14.9-1.8a8.6 8.6 0 0 1 1.6 3.7c.5 2.5-.3 5.2-2.3 8 .3 0 .7.1 1 .4 1.7-3.4 2.3-6.8 1.7-10l-.7-2.5c-4.8-4-11.4-4.4-16.2 2.2z"/>
    <path id="d" fill="#85340a" stroke-width="1" d="M246.2 248.6c2.8 0 3.5.6 4.8 1.7 1.3 1.1 2 .9 2.2 1.1.2.2 0 .9-.4.7-.5-.3-1.4-.7-2.7-1.8-1.3-1-2.6-1-4-1-3.8 0-6 3.2-6.5 3-.4-.2 2.2-3.7 6.6-3.7z"/>
    <use xlink:href="#h" width="100%" height="100%" transform="translate(-19.6)"/>
    <circle id="f" cx="246.3" cy="252.1" r="2" fill="#85340a" stroke-width="1"/>
    <path id="g" fill="#85340a" stroke-width="1" d="M241 253.4c3.7 2.8 7.4 2.6 9.6 1.3 2.2-1.3 2.2-1.8 1.7-1.8-.4 0-.9.5-2.6 1.4-1.8.8-4.4.8-8.8-1z"/>
  </svg>

  <svg id="australia" xmlns="http://www.w3.org/2000/svg" viewBox="0 0 512 512">
    <path fill="#00008B" d="M0 0h512v512H0z"/>
    <path fill="#fff" d="M256 0v32l-95 96 95 93.5V256h-33.5L127 162l-93 94H0v-34l93-93.5L0 37V0h31l96 94 93-94z"/>
    <path fill="red" d="m92 162 5.5 17L21 256H0v-1.5zm62-6 27 4 75 73.5V256zM256 0l-96 98-2-22 75-76zM0 .5 96.5 95 67 91 0 24.5z"/>
    <path fill="#fff" d="M88 0v256h80V0zM0 88v80h256V88z"/>
    <path fill="red" d="M0 104v48h256v-48zM104 0v256h48V0z"/>
    <path fill="#fff" d="m202 402.8-45.8 5.4 4.6 45.9-32.8-32.4-33 32.2 4.9-45.9-45.8-5.8L93 377.4 69 338l43.6 15 15.8-43.4 15.5 43.5 43.7-14.7-24.3 39.2 38.8 25.1Zm222.7 8-20.5 2.6 2.2 20.5-14.8-14.4-14.7 14.5 2-20.5-20.5-2.4 17.3-11.2-10.9-17.5 19.6 6.5 6.9-19.5 7.1 19.4 19.5-6.7-10.7 17.6 17.5 11.1ZM415 293.6l2.7-13-9.8-9 13.2-1.5 5.5-12.1 5.5 12.1 13.2 1.5-9.8 9 2.7 13-11.6-6.6-11.6 6.6Zm-84.1-60-20.3 2.2 1.8 20.3-14.4-14.5-14.8 14.1 2.4-20.3-20.2-2.7 17.3-10.8-10.5-17.5 19.3 6.8 7.2-19.1 6.7 19.3 19.4-6.3-10.9 17.3 17 11.2Zm175.8-32.8-20.9 2.7 2.3 20.9-15.1-14.7-15 14.8 2.1-21-20.9-2.4 17.7-11.5-11.1-17.9 20 6.7 7-19.8 7.2 19.8 19.9-6.9-11 18 17.8 11.3Zm-82.1-83.5-20.7 2.3 1.9 20.8-14.7-14.8L376 140l2.4-20.7-20.7-2.8 17.7-11-10.7-17.9 19.7 6.9 7.3-19.5 6.8 19.7 19.8-6.5-11.1 17.6 17.4 11.5Z"/>
  </svg>

  <svg id="austria" xmlns="http://www.w3.org/2000/svg" viewBox="0 0 512 512">
    <g fill-rule="evenodd">
      <path fill="#fff" d="M512 512H0V0h512z"/>
      <path fill="#c8102e" d="M512 512H0V341.3h512zm0-341.2H0V.1h512z"/>
    </g>
  </svg>

  <svg id="belgium" xmlns="http://www.w3.org/2000/svg" viewBox="0 0 512 512">
    <g fill-rule="evenodd" stroke-width="1pt">
      <path d="M0 0h170.7v512H0z"/>
      <path fill="#ffd90c" d="M170.7 0h170.6v512H170.7z"/>
      <path fill="#f31830" d="M341.3 0H512v512H341.3z"/>
    </g>
  </svg>


  <svg id="brazil" xmlns="http://www.w3.org/2000/svg" viewBox="0 0 512 512">
    <g stroke-width="1pt">
      <path fill="#229e45" fill-rule="evenodd" d="M0 0h512v512H0z"/>
      <path fill="#f8e509" fill-rule="evenodd" d="m261.4 405.4 229.8-149.2L260 106.6l-230.7 150 232 148.8z"/>
      <path fill="#2b49a3" fill-rule="evenodd" d="M361.5 256a97.2 97.2 0 1 1-194.3-.2 97.2 97.2 0 0 1 194.3.2z"/>
      <path fill="#ffffef" fill-rule="evenodd" d="m232.3 314.2-3-1.8-3.1 1.6.7-3.5-2.4-2.5 3.4-.4 1.6-3.2 1.5 3.3 3.4.6-2.6 2.4m65.7 20-3-1.8-3.2 1.6.7-3.5-2.4-2.5 3.5-.4 1.6-3.2 1.4 3.3 3.4.6-2.5 2.4m-27.6-22.9-2.6-1.5-2.7 1.3.6-3-2-2.2 2.9-.3 1.4-2.7 1.2 2.8 3 .5-2.2 2m66.2-6.4-2.6-1.5-2.6 1.3.6-2.9-2-2.1 2.9-.4 1.3-2.6 1.3 2.7 2.9.5-2.2 2m-66.6-16.7-3-1.8-3.1 1.6.7-3.5-2.4-2.5 3.4-.4 1.6-3.1 1.5 3.2 3.4.6-2.6 2.4M188 245l-3-1.8-3 1.6.6-3.5-2.4-2.5 3.5-.4 1.6-3.2 1.4 3.3 3.4.6-2.5 2.4m10.1 43.5-3-1.7-3.1 1.5.7-3.4-2.4-2.6 3.4-.4 1.6-3 1.5 3.1 3.4.7-2.6 2.3m100.6-51.3-2.6-1.5-2.8 1.3.6-3-2-2.3 3-.3 1.4-2.8 1.3 2.9 3 .5-2.3 2.1m-5 29.2L290 255l-2.1 1 .4-2.4-1.6-1.7 2.4-.3 1.1-2.2 1 2.3 2.4.4-1.8 1.6m-108.4 38.5-2-1.2-2.1 1 .4-2.3-1.6-1.7 2.4-.2 1-2 1 2 2.3.5-1.7 1.6m152.6 11.5-1.7-.8-1.7.7.4-1.7-1.3-1.3 1.9-.2.9-1.5.7 1.6 1.9.3-1.4 1.2"/>
      <path fill="#ffffef" fill-rule="evenodd" d="m183.5 292.3-2-1.2-2.1 1 .5-2.3-1.7-1.7 2.3-.2 1.1-2 1 2 2.3.5-1.7 1.6"/>
      <path fill="#ffffef" fill-rule="evenodd" d="m183.5 292.3-2-1.2-2.1 1 .5-2.3-1.7-1.7 2.3-.2 1.1-2 1 2 2.3.5-1.7 1.6m32.2 2.3-2-1.2-2 1 .4-2.3-1.6-1.7 2.3-.2 1-2.1 1 2.1 2.3.5-1.7 1.6m-3.7 13-2-1.2-2 1 .4-2.3-1.6-1.7 2.3-.3 1-2 1 2 2.3.5-1.7 1.6m66.7-17-2-1.2-2.1 1 .4-2.3-1.6-1.7 2.3-.2 1.1-2.1 1 2.1 2.2.4-1.7 1.6m-19.1 2.4-2-1.2-2.1 1 .5-2.3-1.6-1.7 2.3-.2 1-2.1 1 2.1 2.3.4-1.7 1.6m-52.5-4.4-1.2-.7-1.3.6.2-1.5-1-1 1.5-.2.7-1.3.5 1.4 1.5.2-1 1M333.2 310l-2-1.1-2.1 1 .5-2.3-1.6-1.7 2.3-.3 1-2 1 2 2.3.5-1.7 1.6m-16 4.4-1.6-1-1.7 1 .4-2-1.4-1.4 2-.2.8-1.7.8 1.7 2 .4-1.5 1.3m8 1.8-1.6-1-1.6.9.3-1.8-1.2-1.3 1.8-.2.8-1.6.7 1.6 1.8.3-1.3 1.3m22.2-17.4-1.5-.9-1.6.8.4-1.7-1.2-1.3 1.7-.2.8-1.5.7 1.6 1.7.3-1.3 1.2M317 322.9l-2-1.1-2 1 .5-2.2-1.6-1.5 2.2-.3 1.1-1.9 1 2 2.1.4-1.6 1.4m.4 10.9-1.8-1-1.8.9.4-2.2-1.4-1.5 2-.3 1-1.9.8 2 2 .4-1.5 1.4M302.3 312l-1.5-.9-1.6.8.4-1.8-1.2-1.2 1.7-.2.8-1.6.7 1.6 1.7.3-1.3 1.2m-13.5 1.8-1.5-.9-1.6.8.4-1.8-1.2-1.2 1.7-.2.8-1.6.7 1.6 1.7.3-1.2 1.2M265 291.4l-1.5-.9-1.6.8.4-1.7-1.2-1.3 1.7-.2.8-1.5.7 1.6 1.7.3-1.3 1.1m2.9 43.5-1.3-.7-1.3.7.3-1.5-1-1 1.4-.3.7-1.3.6 1.4 1.5.2-1.1 1m-35.2-66-3-1.7-3.1 1.5.7-3.4-2.4-2.6 3.4-.4 1.6-3.1 1.5 3.2 3.4.6-2.6 2.4"/>
      <path fill="#fff" fill-rule="evenodd" d="M355.1 291a95 95 0 0 0 4.4-15.1c-51.6-45.4-109.2-68.7-182-63.9a95 95 0 0 0-6.4 15.9 233 233 0 0 1 184 63z"/>
      <path fill="#309e3a" d="m331.9 265.4 1.8 1a2.6 2.6 0 0 0-.2 1.8c.1.4.5.9 1 1.2.6.4 1.1.6 1.6.6.4 0 .8-.3 1-.6.1-.2.2-.4.1-.7l-.3-.8-1.2-1.3a5.9 5.9 0 0 1-1.4-2.3 2.8 2.8 0 0 1 1.6-3.3 2.9 2.9 0 0 1 1.7-.2 5.3 5.3 0 0 1 2 .9 6 6 0 0 1 2 2.4 3 3 0 0 1-.5 2.6l-1.8-1.1c.2-.5.3-1 .2-1.4-.1-.3-.5-.7-1-1-.5-.4-1-.5-1.4-.5a.8.8 0 0 0-.6.3.8.8 0 0 0-.1.7c0 .4.5 1 1.2 1.7l1.5 2a3 3 0 0 1-.2 3.2 3.1 3.1 0 0 1-1.4 1.1 3 3 0 0 1-1.9.2 6 6 0 0 1-2.1-1 4.6 4.6 0 0 1-2-2.5c-.3-.9-.2-1.9.4-3zm-8.8-5.7 2 1a2.6 2.6 0 0 0-.2 1.6c.1.5.5 1 1 1.3.6.4 1.1.5 1.6.4.4 0 .8-.2 1-.6a1 1 0 0 0 .1-.6c0-.3-.1-.5-.4-.8l-1.2-1.3a6 6 0 0 1-1.5-2.2 2.8 2.8 0 0 1 .3-2.4 2.8 2.8 0 0 1 1.2-1 3 3 0 0 1 1.7-.2c.6 0 1.2.3 2 .8 1 .7 1.8 1.4 2 2.3a3 3 0 0 1-.3 2.6l-1.9-1.1c.3-.5.3-1 .2-1.3-.2-.4-.5-.7-1-1a2.4 2.4 0 0 0-1.5-.5.8.8 0 0 0-.6.4.8.8 0 0 0 0 .7c0 .3.5.9 1.2 1.7.8.7 1.3 1.4 1.6 1.8a3 3 0 0 1-.1 3.3 3.2 3.2 0 0 1-3.2 1.4 6.1 6.1 0 0 1-2.2-.9 4.7 4.7 0 0 1-2.1-2.4 4.1 4.1 0 0 1 .3-3zm-10.8-3 5.6-9 6.7 4-1 1.6-4.8-3-1.3 2 4.6 2.8-1 1.6-4.5-2.8-1.5 2.5 5 3-.9 1.6-6.9-4.2zm-15.8-12.9.9-1.6 4 2.2-1.9 3.7a7.2 7.2 0 0 1-4.8-.6 5.8 5.8 0 0 1-2.2-2 4.5 4.5 0 0 1-.8-2.6c0-1 .3-1.9.8-2.8a6.1 6.1 0 0 1 2-2.3c.7-.6 1.7-.9 2.7-.9.7 0 1.6.3 2.5.7a5 5 0 0 1 2.3 2.2c.4.8.5 1.7.3 2.7l-2.1-.6a2.2 2.2 0 0 0-.2-1.5 2.5 2.5 0 0 0-1.2-1.1 2.9 2.9 0 0 0-2.4-.3c-.7.3-1.4 1-2 2a4.8 4.8 0 0 0-.5 3c.2.8.7 1.4 1.6 1.8l1.3.4h1.3l.6-1.2-2.2-1.2zm-68.8-17 1.6-10.6 3.2.5.8 7.5 3-7 3.1.5-1.5 10.6-2-.3 1.2-8.3-3.3 8-2-.3-.9-8.7-1.2 8.4-2-.3zm-10.7-1.3 1-10.6 7.8.7-.1 1.8-5.8-.5-.2 2.3 5.3.5-.1 1.8-5.3-.5-.3 3 5.9.5-.2 1.8-8-.8z"/>
      <g stroke-opacity=".5">
        <path fill="#309e3a" d="M181.4 218.8c0-1 .2-2 .5-2.7l1-1.4 1.5-1a5.8 5.8 0 0 1 2.3-.3 5 5 0 0 1 3.7 1.6c1 1 1.3 2.3 1.3 4 0 1.8-.6 3.1-1.5 4a5 5 0 0 1-3.8 1.4 5 5 0 0 1-3.7-1.5 5 5 0 0 1-1.3-4z"/>
        <path fill="#f7ffff" d="M183.6 218.8c0 1.2.2 2.2.8 2.8.5.7 1.2 1 2 1a3 3 0 0 0 2.2-.9c.5-.6.8-1.5.9-2.7 0-1.3-.2-2.2-.8-2.8a2.7 2.7 0 0 0-2-1c-1 0-1.7.3-2.2.9-.6.6-.9 1.5-1 2.7z"/>
      </g>
      <g stroke-opacity=".5">
        <path fill="#309e3a" d="m194 224.4.1-10.7h4.5c1.2 0 2 .2 2.5.4s1 .5 1.2 1 .5 1 .5 1.7c0 .8-.3 1.4-.7 2-.5.5-1.2.8-2.2 1 .5.2.9.5 1.2.8l1.2 1.8 1.3 2H201l-1.5-2.3a16 16 0 0 0-1.2-1.6 1.6 1.6 0 0 0-.6-.4 3.5 3.5 0 0 0-1-.2h-.5v4.5H194z"/>
        <path fill="#fff" d="M196.2 218.2h1.6a8.1 8.1 0 0 0 2 0l.5-.5c.2-.2.3-.5.3-.8 0-.4-.1-.7-.3-.9a1.3 1.3 0 0 0-.8-.4h-3.2v2.6z"/>
      </g>
      <g stroke-opacity=".5">
        <path fill="#309e3a" d="m206.2 214.2 3.9.2a7.6 7.6 0 0 1 2 .3 4 4 0 0 1 1.5 1 5 5 0 0 1 1 1.9c.2.7.2 1.5.2 2.5a5.3 5.3 0 0 1-1.7 4.1c-.4.3-.9.6-1.5.8h-2l-4-.1.6-10.7z"/>
        <path fill="#fff" d="m208.2 216.1-.3 7 1.6.2h1.3l.9-.5c.3-.2.4-.5.6-1l.3-2-.1-1.8c-.2-.5-.3-.8-.6-1a2 2 0 0 0-1-.6 9.6 9.6 0 0 0-1.7-.2h-1z"/>
      </g>
      <g stroke-opacity=".5">
        <path fill="#309e3a" d="m258.5 233.3 2.5-10.4 3.3.8c1.3.3 2.1.6 2.5.8.5.3 1 .7 1.2 1.3.3.7.3 1.4.1 2.2a3 3 0 0 1-1.9 2.3 3 3 0 0 1-1.1.3 12 12 0 0 1-2.2-.4l-1.4-.3-1 3.9-2-.5z"/>
        <path fill="#fff" d="m262.6 225.2-.7 3 1.2.2c.8.2 1.4.3 1.7.2a1.4 1.4 0 0 0 1.2-1l-.1-1.1a1.5 1.5 0 0 0-.8-.7l-1.5-.4-1-.2z"/>
      </g>
      <g stroke-opacity=".5">
        <path fill="#309e3a" d="m268.4 236.3 3.5-10.1 4.3 1.5a8 8 0 0 1 2.2 1c.4.4.7.9.9 1.5s0 1.1-.2 1.7c-.2.8-.7 1.3-1.3 1.6a3 3 0 0 1-2.3.3l.8 1.2.6 2 .5 2.4-2.4-.8-.7-2.7a14.5 14.5 0 0 0-.6-1.9 1.6 1.6 0 0 0-.4-.6 3.4 3.4 0 0 0-1-.5l-.4-.1-1.5 4.2-2-.7z"/>
        <path fill="#fff" d="m272.4 231.2 1.5.5 1.9.5c.3 0 .5 0 .7-.2l.5-.7v-1a1.3 1.3 0 0 0-.6-.6l-1.5-.5-1.6-.6-.9 2.6z"/>
      </g>
      <g stroke-opacity=".5">
        <path fill="#309e3a" d="M280.9 235.9a6.8 6.8 0 0 1 1.3-2.5c.3-.5.8-.8 1.3-1.1a4.2 4.2 0 0 1 1.6-.5c.7 0 1.5 0 2.3.3a5 5 0 0 1 3.2 2.5c.6 1.2.7 2.7.1 4.3a5.6 5.6 0 0 1-2.5 3.5 5 5 0 0 1-4 .2 5 5 0 0 1-3.2-2.5 5.5 5.5 0 0 1-.1-4.2z"/>
        <path fill="#fff" d="M283 236.5c-.3 1.1-.3 2 0 2.8.4.8 1 1.3 1.8 1.6.8.2 1.5.1 2.2-.3.7-.4 1.3-1.2 1.7-2.4.3-1.2.3-2.1 0-2.9a2.7 2.7 0 0 0-1.8-1.5 2.7 2.7 0 0 0-2.3.3c-.7.4-1.2 1.2-1.6 2.4z"/>
      </g>
      <g stroke-opacity=".5">
        <path fill="#309e3a" d="m301.7 250.8 4.9-9.5 4 2c1 .6 1.7 1 2 1.4.4.5.6 1 .7 1.5s0 1.2-.4 1.7c-.3.7-.8 1.2-1.5 1.5-.7.2-1.4.2-2.3-.1.3.4.5.9.6 1.3l.3 2.1.2 2.5-2.3-1.2-.3-2.8-.3-2a1.6 1.6 0 0 0-.4-.6 3.5 3.5 0 0 0-.9-.6l-.4-.2-2 4-1.9-1z"/>
        <path fill="#fff" d="m306.4 246.3 1.4.7 1.8.8c.3 0 .5 0 .7-.2a1.5 1.5 0 0 0 .8-1.5 1.3 1.3 0 0 0-.6-.7 21 21 0 0 0-1.3-.8l-1.5-.7-1.3 2.4z"/>
      </g>
      <g stroke-opacity=".5">
        <path fill="#309e3a" d="M341.2 270.3c.6-1 1.2-1.6 2-2a5 5 0 0 1 1.6-.7 4.2 4.2 0 0 1 1.6 0c.7.1 1.5.4 2.2 1a5 5 0 0 1 2.3 3.3 6 6 0 0 1-1.1 4.1 5.6 5.6 0 0 1-3.5 2.6 5 5 0 0 1-3.9-.9 5 5 0 0 1-2.3-3.3 5.5 5.5 0 0 1 1-4.1z"/>
        <path fill="#fff" d="M343 271.4c-.6 1-.9 2-.8 2.8a3 3 0 0 0 1.3 2 2.7 2.7 0 0 0 2.2.4c.8-.2 1.6-.8 2.3-1.9.7-1 1-1.9.8-2.7 0-.8-.5-1.4-1.2-2s-1.5-.6-2.3-.4c-.8.2-1.5.8-2.2 1.8z"/>
      </g>
      <path fill="#309e3a" d="m246.4 229 1.7-7.6 5.6 1.3-.3 1.3-4-1-.4 1.7 3.7.9-.3 1.3-3.7-1-.5 2.1 4.2 1-.3 1.3-5.7-1.3z"/>
    </g>
  </svg>

  <svg id="canada" xmlns="http://www.w3.org/2000/svg" viewBox="0 0 512 512">
    <path fill="#fff" d="M81.1 0h362.3v512H81.1z"/>
    <path fill="#d52b1e" d="M-100 0H81.1v512H-100zm543.4 0h181.1v512H443.4zM135.3 247.4l-14 4.8 65.4 57.5c5 14.8-1.7 19.1-6 26.9l71-9-1.8 71.5 14.8-.5-3.3-70.9 71.2 8.4c-4.4-9.3-8.3-14.2-4.3-29l65.4-54.5-11.4-4.1c-9.4-7.3 4-34.8 6-52.2 0 0-38.1 13.1-40.6 6.2l-9.9-18.5-34.6 38c-3.8 1-5.4-.6-6.3-3.8l16-79.7-25.4 14.3c-2.1.9-4.2 0-5.6-2.4l-24.5-49-25.2 50.9c-1.9 1.8-3.8 2-5.4.8l-24.2-13.6 14.5 79.2c-1.1 3-3.9 4-7.1 2.3l-33.3-37.8c-4.3 7-7.3 18.4-13 21-5.7 2.3-25-4.9-37.9-7.7 4.4 15.9 18.2 42.3 9.5 51z"/>
  </svg>

  <svg id="finland" xmlns="http://www.w3.org/2000/svg" viewBox="0 0 512 512">
    <path fill="#fff" d="M0 0h512v512H0z"/>
    <path fill="#002f6c" d="M0 186.2h512v139.6H0z"/>
    <path fill="#002f6c" d="M123.2 0h139.6v512H123.1z"/>
  </svg>

  <svg id="hungary" xmlns="http://www.w3.org/2000/svg" viewBox="0 0 512 512">
    <g fill-rule="evenodd">
      <path fill="#fff" d="M512 512H0V0h512z"/>
      <path fill="#388d00" d="M512 512H0V341.3h512z"/>
      <path fill="#d43516" d="M512 170.8H0V.1h512z"/>
    </g>
  </svg>

  <svg id="ireland" xmlns="http://www.w3.org/2000/svg" viewBox="0 0 512 512">
    <g fill-rule="evenodd" stroke-width="1pt">
      <path fill="#fff" d="M0 0h512v512H0z"/>
      <path fill="#009A49" d="M0 0h170.7v512H0z"/>
      <path fill="#FF7900" d="M341.3 0H512v512H341.3z"/>
    </g>
  </svg>

  <svg id="italy" xmlns="http://www.w3.org/2000/svg" viewBox="0 0 512 512">
    <g fill-rule="evenodd" stroke-width="1pt">
      <path fill="#fff" d="M0 0h512v512H0z"/>
      <path fill="#009246" d="M0 0h170.7v512H0z"/>
      <path fill="#ce2b37" d="M341.3 0H512v512H341.3z"/>
    </g>
  </svg>

  <svg id="latvia" xmlns="http://www.w3.org/2000/svg" viewBox="0 0 512 512">
    <g fill-rule="evenodd">
      <path fill="#fff" d="M0 0h512v512H0z"/>
      <path fill="#981e32" d="M0 0h512v204.8H0zm0 307.2h512V512H0z"/>
    </g>
  </svg>

  <svg id="poland" xmlns="http://www.w3.org/2000/svg" viewBox="0 0 512 512">
    <g fill-rule="evenodd">
      <path fill="#fff" d="M512 512H0V0h512z"/>
      <path fill="#dc143c" d="M512 512H0V256h512z"/>
    </g>
  </svg>

  <svg id="scotland" xmlns="http://www.w3.org/2000/svg" viewBox="0 0 512 512">
    <path fill="#0065bd" d="M0 0h512v512H0z"/>
    <path stroke="#fff" stroke-width=".6" d="m0 0 5 3M0 3l5-3" transform="scale(102.4 170.66667)"/>
  </svg>

  <svg id="sweden" xmlns="http://www.w3.org/2000/svg" viewBox="0 0 512 512">
    <path fill="#005293" d="M0 0h512v512H0z"/>
    <path fill="#fecb00" d="M134 0v204.8H0v102.4h134V512h102.4V307.2H512V204.8H236.4V0H134z"/>
  </svg>

  <svg id="taiwan" xmlns="http://www.w3.org/2000/svg" viewBox="0 0 512 512">
    <clipPath id="a">
      <path d="M0 0h512v512H0z"/>
    </clipPath>
    <g clip-path="url(#a)">
      <path fill="red" d="M0 0h768v512H0z"/>
      <path fill="#000095" d="M0 0h384v256H0z"/>
      <g fill="#fff">
        <path d="m164.3 135.4-2.7 10.2 10.1 2.7-2-7.4zm50 5.5-2 7.4 10.1-2.7-2.7-10.2zm-44.6-25.8-5.4 5.5 2 7.4z"/>
        <path d="m166.3 128-2 7.4 5.4 5.5z"/>
        <path d="m164.3 120.6-7.4 7.4 7.4 7.4 2-7.4zm14.8 29.7 5.5 5.4 7.4-2zm20.3 5.4 10.2 2.7 2.7-10.1-7.4 2z"/>
        <path d="m204.9 150.3 7.4-2 2-7.4zm-33.2-2 2.7 10.1 10.2-2.7-5.5-5.4zm20.3 5.4 7.4 2 5.5-5.4z"/>
        <path d="m184.6 155.7 7.4 7.4 7.4-7.4-7.4-2zm-12.9-48-10.1 2.7 2.7 10.2 5.4-5.5zm-2 33.2 2 7.4 7.4 2zm48-12.9 2-7.4-5.4-5.5z"/>
        <path d="m179.1 105.7-7.4 2-2 7.4zm35.2 9.4-2-7.4-7.4-2zm5.4 20.3 7.4-7.4-7.4-7.4-2 7.4z"/>
        <path d="m214.3 115.1-9.4-9.4-12.9-3.4-12.9 3.4-9.4 9.4-3.4 12.9 3.4 12.9 9.4 9.4 12.9 3.4 12.9-3.4 9.4-9.4 3.4-12.9z"/>
        <path d="m214.3 140.9 5.4-5.5-2-7.4zm5.4-20.3 2.7-10.2-10.1-2.7 2 7.4zm-7.4-12.9-2.7-10.1-10.2 2.7 5.5 5.4zm-27.7-7.4-10.2-2.7-2.7 10.1 7.4-2z"/>
        <path d="m192 102.3-7.4-2-5.5 5.4z"/>
        <path d="m199.4 100.3-7.4-7.4-7.4 7.4 7.4 2z"/>
        <path d="m204.9 105.7-5.5-5.4-7.4 2zm-20.3 50-10.2 2.7 4.7 17.6 12.9-12.9zm-5.5 20.3 12.9 48 12.9-48-12.9-12.9zm-7.4-27.7-10.1-2.7-4.7 17.5 17.5-4.7z"/>
        <path d="m156.9 163.1-12.9 48 35.1-35.1-4.7-17.6zM144 140.9 108.9 176l48-12.9 4.7-17.5z"/>
        <path d="m164.3 135.4-7.4-7.4-12.9 12.9 17.6 4.7zm0-14.8-2.7-10.2-17.6 4.7 12.9 12.9z"/>
        <path d="M144 115.1 96 128l48 12.9 12.9-12.9zm96 25.8-17.6 4.7 4.7 17.5 48 12.9z"/>
        <path d="m212.3 148.3-2.7 10.1 17.5 4.7-4.7-17.5zm-12.9 7.4-7.4 7.4 12.9 12.9 4.7-17.6zm20.3-20.3 2.7 10.2 17.6-4.7-12.9-12.9zM204.9 176l35.1 35.1-12.9-48-17.5-4.7zm7.4-68.3 10.1 2.7 4.7-17.5-17.5 4.7zm27.7 7.4L275.1 80l-48 12.9-4.7 17.5zm-12.9-22.2 12.9-48L204.9 80l4.7 17.6zm12.9 48 48-12.9-48-12.9-12.9 12.9z"/>
        <path d="m219.7 120.6 7.4 7.4 12.9-12.9-17.6-4.7zM179.1 80 144 44.9l12.9 48 17.5 4.7zm-7.4 27.7 2.7-10.1-17.5-4.7 4.7 17.5z"/>
        <path d="m156.9 92.9-48-12.9 35.1 35.1 17.6-4.7zm42.5 7.4 10.2-2.7-4.7-17.6L192 92.9z"/>
        <path d="M204.9 80 192 32l-12.9 48L192 92.9z"/>
        <path d="m184.6 100.3 7.4-7.4L179.1 80l-4.7 17.6z"/>
      </g>
      <circle cx="192" cy="128" r="54.4" fill="#000095"/>
      <circle cx="192" cy="128" r="48" fill="#fff"/>
    </g>
  </svg>

  <svg id="germany" xmlns="http://www.w3.org/2000/svg" viewBox="0 0 512 512">
    <path fill="#ffce00" d="M0 341.3h512V512H0z"/>
    <path d="M0 0h512v170.7H0z"/>
    <path fill="#d00" d="M0 170.7h512v170.6H0z"/>
  </svg>
</svg>