<svg width="0" height="0" class="hidden">
  <svg id="app" xmlns="http://www.w3.org/2000/svg" fill="currentColor" class="bi bi-app-indicator" viewBox="0 0 16 16">
    <path d="M5.5 2A3.5 3.5 0 0 0 2 5.5v5A3.5 3.5 0 0 0 5.5 14h5a3.5 3.5 0 0 0 3.5-3.5V8a.5.5 0 0 1 1 0v2.5a4.5 4.5 0 0 1-4.5 4.5h-5A4.5 4.5 0 0 1 1 10.5v-5A4.5 4.5 0 0 1 5.5 1H8a.5.5 0 0 1 0 1z"/>
    <path d="M16 3a3 3 0 1 1-6 0 3 3 0 0 1 6 0"/>
  </svg>

  <svg id="grip" width="15" height="15" viewBox="0 0 15 15" fill="currentColor" xmlns="http://www.w3.org/2000/svg"><path d="M5.5 4.625C6.12132 4.625 6.625 4.12132 6.625 3.5C6.625 2.87868 6.12132 2.375 5.5 2.375C4.87868 2.375 4.375 2.87868 4.375 3.5C4.375 4.12132 4.87868 4.625 5.5 4.625ZM9.5 4.625C10.1213 4.625 10.625 4.12132 10.625 3.5C10.625 2.87868 10.1213 2.375 9.5 2.375C8.87868 2.375 8.375 2.87868 8.375 3.5C8.375 4.12132 8.87868 4.625 9.5 4.625ZM10.625 7.5C10.625 8.12132 10.1213 8.625 9.5 8.625C8.87868 8.625 8.375 8.12132 8.375 7.5C8.375 6.87868 8.87868 6.375 9.5 6.375C10.1213 6.375 10.625 6.87868 10.625 7.5ZM5.5 8.625C6.12132 8.625 6.625 8.12132 6.625 7.5C6.625 6.87868 6.12132 6.375 5.5 6.375C4.87868 6.375 4.375 6.87868 4.375 7.5C4.375 8.12132 4.87868 8.625 5.5 8.625ZM10.625 11.5C10.625 12.1213 10.1213 12.625 9.5 12.625C8.87868 12.625 8.375 12.1213 8.375 11.5C8.375 10.8787 8.87868 10.375 9.5 10.375C10.1213 10.375 10.625 10.8787 10.625 11.5ZM5.5 12.625C6.12132 12.625 6.625 12.1213 6.625 11.5C6.625 10.8787 6.12132 10.375 5.5 10.375C4.87868 10.375 4.375 10.8787 4.375 11.5C4.375 12.1213 4.87868 12.625 5.5 12.625Z" fill="currentColor" fill-rule="evenodd" clip-rule="evenodd"></path></svg>

  <svg id="download" xmlns="http://www.w3.org/2000/svg" fill="currentColor" class="bi bi-download" viewBox="0 0 16 16">
    <path d="M.5 9.9a.5.5 0 0 1 .5.5v2.5a1 1 0 0 0 1 1h12a1 1 0 0 0 1-1v-2.5a.5.5 0 0 1 1 0v2.5a2 2 0 0 1-2 2H2a2 2 0 0 1-2-2v-2.5a.5.5 0 0 1 .5-.5"/>
    <path d="M7.646 11.854a.5.5 0 0 0 .708 0l3-3a.5.5 0 0 0-.708-.708L8.5 10.293V1.5a.5.5 0 0 0-1 0v8.793L5.354 8.146a.5.5 0 1 0-.708.708z"/>
  </svg>

  <svg id="share" xmlns="http://www.w3.org/2000/svg" fill="currentColor" class="bi bi-share" viewBox="0 0 16 16">
    <path d="M13.5 1a1.5 1.5 0 1 0 0 3 1.5 1.5 0 0 0 0-3M11 2.5a2.5 2.5 0 1 1 .603 1.628l-6.718 3.12a2.5 2.5 0 0 1 0 1.504l6.718 3.12a2.5 2.5 0 1 1-.488.876l-6.718-3.12a2.5 2.5 0 1 1 0-3.256l6.718-3.12A2.5 2.5 0 0 1 11 2.5m-8.5 4a1.5 1.5 0 1 0 0 3 1.5 1.5 0 0 0 0-3m11 5.5a1.5 1.5 0 1 0 0 3 1.5 1.5 0 0 0 0-3"/>
  </svg>

  <svg id="google" viewBox="0 0 48 48" xmlns="http://www.w3.org/2000/svg">
    <path fill="#4285F4" d="M43.5 24c0-1.27-.14-2.5-.37-3.7H24v7h12.2a9.85 9.85 0 0 1-3.8 6.5v5.4h6.1c3.57-3.3 5.6-8.2 5.6-13.2z" />
    <path fill="#34A853" d="M24 44c5.1 0 9.4-1.7 12.5-4.7l-6.1-5a8.7 8.7 0 0 1-13.7-2.3H4v5.6A24 24 0 0 0 24 44z" />
    <path fill="#FBBC05" d="M11.3 26a13.5 13.5 0 0 1 0-8.1V12H4a24 24 0 0 0 0 24l7.3-5.3z" />
    <path fill="#EA4335" d="M24 8a13.6 13.6 0 0 1 9.6 3.8l7.1-7.1A23.9 23.9 0 0 0 4 12h7.3A13.5 13.5 0 0 1 24 8z" />
  </svg>

  <svg id="login" xmlns="http://www.w3.org/2000/svg" fill="currentColor" class="bi bi-box-arrow-in-right" viewBox="0 0 16 16">
    <path fill-rule="evenodd" d="M6 3.5a.5.5 0 0 1 .5-.5h8a.5.5 0 0 1 .5.5v9a.5.5 0 0 1-.5.5h-8a.5.5 0 0 1-.5-.5v-2a.5.5 0 0 0-1 0v2A1.5 1.5 0 0 0 6.5 14h8a1.5 1.5 0 0 0 1.5-1.5v-9A1.5 1.5 0 0 0 14.5 2h-8A1.5 1.5 0 0 0 5 3.5v2a.5.5 0 0 0 1 0z"/>
    <path fill-rule="evenodd" d="M11.854 8.354a.5.5 0 0 0 0-.708l-3-3a.5.5 0 1 0-.708.708L10.293 7.5H1.5a.5.5 0 0 0 0 1h8.793l-2.147 2.146a.5.5 0 0 0 .708.708z"/>
  </svg>

  <svg id="info-circle" xmlns="http://www.w3.org/2000/svg" fill="currentColor" class="bi bi-info-circle" viewBox="0 0 16 16">
    <path d="M8 15A7 7 0 1 1 8 1a7 7 0 0 1 0 14m0 1A8 8 0 1 0 8 0a8 8 0 0 0 0 16"/>
    <path d="m8.93 6.588-2.29.287-.082.38.45.083c.294.07.352.176.288.469l-.738 3.468c-.194.897.105 1.319.808 1.319.545 0 1.178-.252 1.465-.598l.088-.416c-.2.176-.492.246-.686.246-.275 0-.375-.193-.304-.533zM9 4.5a1 1 0 1 1-2 0 1 1 0 0 1 2 0"/>
  </svg>

  <svg id="home" xmlns="http://www.w3.org/2000/svg" fill="currentColor" class="bi bi-house" viewBox="0 0 16 16">
    <path d="M8.707 1.5a1 1 0 0 0-1.414 0L.646 8.146a.5.5 0 0 0 .708.708L2 8.207V13.5A1.5 1.5 0 0 0 3.5 15h9a1.5 1.5 0 0 0 1.5-1.5V8.207l.646.647a.5.5 0 0 0 .708-.708L13 5.793V2.5a.5.5 0 0 0-.5-.5h-1a.5.5 0 0 0-.5.5v1.293zM13 7.207V13.5a.5.5 0 0 1-.5.5h-9a.5.5 0 0 1-.5-.5V7.207l5-5z"/>
  </svg>

  <symbol id="settings" xmlns="http://www.w3.org/2000/svg" fill="currentColor" viewBox="0 0 16 16">
    <path d="M8.932.727c-.243-.97-1.62-.97-1.864 0l-.071.286a.96.96 0 0 1-1.622.434l-.205-.211c-.695-.719-1.888-.03-1.613.931l.08.284a.96.96 0 0 1-1.186 1.187l-.284-.081c-.96-.275-1.65.918-.931 1.613l.211.205a.96.96 0 0 1-.434 1.622l-.286.071c-.97.243-.97 1.62 0 1.864l.286.071a.96.96 0 0 1 .434 1.622l-.211.205c-.719.695-.03 1.888.931 1.613l.284-.08a.96.96 0 0 1 1.187 1.187l-.081.283c-.275.96.918 1.65 1.613.931l.205-.211a.96.96 0 0 1 1.622.434l.071.286c.243.97 1.62.97 1.864 0l.071-.286a.96.96 0 0 1 1.622-.434l.205.211c.695.719 1.888.03 1.613-.931l-.08-.284a.96.96 0 0 1 1.187-1.187l.283.081c.96.275 1.65-.918.931-1.613l-.211-.205a.96.96 0 0 1 .434-1.622l.286-.071c.97-.243.97-1.62 0-1.864l-.286-.071a.96.96 0 0 1-.434-1.622l.211-.205c.719-.695.03-1.888-.931-1.613l-.284.08a.96.96 0 0 1-1.187-1.186l.081-.284c.275-.96-.918-1.65-1.613-.931l-.205.211a.96.96 0 0 1-1.622-.434L8.932.727zM8 12.997a4.998 4.998 0 1 1 0-9.995 4.998 4.998 0 0 1 0 9.996z"></path>
  </symbol>

  <svg id="write" xmlns="http://www.w3.org/2000/svg" fill="currentColor" class="bi bi-pencil-square" viewBox="0 0 16 16">
    <path d="M15.502 1.94a.5.5 0 0 1 0 .706L14.459 3.69l-2-2L13.502.646a.5.5 0 0 1 .707 0l1.293 1.293zm-1.75 2.456-2-2L4.939 9.21a.5.5 0 0 0-.121.196l-.805 2.414a.25.25 0 0 0 .316.316l2.414-.805a.5.5 0 0 0 .196-.12l6.813-6.814z"/>
    <path fill-rule="evenodd" d="M1 13.5A1.5 1.5 0 0 0 2.5 15h11a1.5 1.5 0 0 0 1.5-1.5v-6a.5.5 0 0 0-1 0v6a.5.5 0 0 1-.5.5h-11a.5.5 0 0 1-.5-.5v-11a.5.5 0 0 1 .5-.5H9a.5.5 0 0 0 0-1H2.5A1.5 1.5 0 0 0 1 2.5z"/>
  </svg>

  <svg id="document" xmlns="http://www.w3.org/2000/svg" fill="currentColor" class="bi bi-file-earmark-text" viewBox="0 0 16 16">
    <path d="M5.5 7a.5.5 0 0 0 0 1h5a.5.5 0 0 0 0-1zM5 9.5a.5.5 0 0 1 .5-.5h5a.5.5 0 0 1 0 1h-5a.5.5 0 0 1-.5-.5m0 2a.5.5 0 0 1 .5-.5h2a.5.5 0 0 1 0 1h-2a.5.5 0 0 1-.5-.5"/>
    <path d="M9.5 0H4a2 2 0 0 0-2 2v12a2 2 0 0 0 2 2h8a2 2 0 0 0 2-2V4.5zm0 1v2A1.5 1.5 0 0 0 11 4.5h2V14a1 1 0 0 1-1 1H4a1 1 0 0 1-1-1V2a1 1 0 0 1 1-1z"/>
  </svg>

  <svg id="clock" xmlns="http://www.w3.org/2000/svg" fill="currentColor" class="bi bi-clock-history" viewBox="0 0 16 16">
    <path d="M8.515 1.019A7 7 0 0 0 8 1V0a8 8 0 0 1 .589.022zm2.004.45a7 7 0 0 0-.985-.299l.219-.976q.576.129 1.126.342zm1.37.71a7 7 0 0 0-.439-.27l.493-.87a8 8 0 0 1 .979.654l-.615.789a7 7 0 0 0-.418-.302zm1.834 1.79a7 7 0 0 0-.653-.796l.724-.69q.406.429.747.91zm.744 1.352a7 7 0 0 0-.214-.468l.893-.45a8 8 0 0 1 .45 1.088l-.95.313a7 7 0 0 0-.179-.483m.53 2.507a7 7 0 0 0-.1-1.025l.985-.17q.1.58.116 1.17zm-.131 1.538q.05-.254.081-.51l.993.123a8 8 0 0 1-.23 1.155l-.964-.267q.069-.247.12-.501m-.952 2.379q.276-.436.486-.908l.914.405q-.24.54-.555 1.038zm-.964 1.205q.183-.183.35-.378l.758.653a8 8 0 0 1-.401.432z"/>
    <path d="M8 1a7 7 0 1 0 4.95 11.95l.707.707A8.001 8.001 0 1 1 8 0z"/>
    <path d="M7.5 3a.5.5 0 0 1 .5.5v5.21l3.248 1.856a.5.5 0 0 1-.496.868l-3.5-2A.5.5 0 0 1 7 9V3.5a.5.5 0 0 1 .5-.5"/>
  </svg>

  <svg id="abc" xmlns="http://www.w3.org/2000/svg" fill="currentColor" class="bi bi-alphabet-uppercase" viewBox="0 0 16 16">
    <path d="M1.226 10.88H0l2.056-6.26h1.42l2.047 6.26h-1.29l-.48-1.61H1.707l-.48 1.61ZM2.76 5.818h-.054l-.75 2.532H3.51zm3.217 5.062V4.62h2.56c1.09 0 1.808.582 1.808 1.54 0 .762-.444 1.22-1.05 1.372v.055c.736.074 1.365.587 1.365 1.528 0 1.119-.89 1.766-2.133 1.766zM7.18 5.55v1.675h.8c.812 0 1.171-.308 1.171-.853 0-.51-.328-.822-.898-.822zm0 2.537V9.95h.903c.951 0 1.342-.312 1.342-.909 0-.591-.382-.954-1.095-.954zm5.089-.711v.775c0 1.156.49 1.803 1.347 1.803.705 0 1.163-.454 1.212-1.096H16v.12C15.942 10.173 14.95 11 13.607 11c-1.648 0-2.573-1.073-2.573-2.849v-.78c0-1.775.934-2.871 2.573-2.871 1.347 0 2.34.849 2.393 2.087v.115h-1.172c-.05-.665-.516-1.156-1.212-1.156-.849 0-1.347.67-1.347 1.83"/>
  </svg>

  <svg id="sort-down" xmlns="http://www.w3.org/2000/svg" fill="currentColor" class="bi bi-filter-left" viewBox="0 0 16 16">
    <path d="M2 10.5a.5.5 0 0 1 .5-.5h3a.5.5 0 0 1 0 1h-3a.5.5 0 0 1-.5-.5m0-3a.5.5 0 0 1 .5-.5h7a.5.5 0 0 1 0 1h-7a.5.5 0 0 1-.5-.5m0-3a.5.5 0 0 1 .5-.5h11a.5.5 0 0 1 0 1h-11a.5.5 0 0 1-.5-.5"/>
  </svg>

  <svg id="github" xmlns="http://www.w3.org/2000/svg" fill="currentColor" class="bi bi-github" viewBox="0 0 16 16">
    <path d="M8 0C3.58 0 0 3.58 0 8c0 3.54 2.29 6.53 5.47 7.59.4.07.55-.17.55-.38 0-.19-.01-.82-.01-1.49-2.01.37-2.53-.49-2.69-.94-.09-.23-.48-.94-.82-1.13-.28-.15-.68-.52-.01-.53.63-.01 1.08.58 1.23.82.72 1.21 1.87.87 2.33.66.07-.52.28-.87.51-1.07-1.78-.2-3.64-.89-3.64-3.95 0-.87.31-1.59.82-2.15-.08-.2-.36-1.02.08-2.12 0 0 .67-.21 2.2.82.64-.18 1.32-.27 2-.27s1.36.09 2 .27c1.53-1.04 2.2-.82 2.2-.82.44 1.1.16 1.92.08 2.12.51.56.82 1.27.82 2.15 0 3.07-1.87 3.75-3.65 3.95.29.25.54.73.54 1.48 0 1.07-.01 1.93-.01 2.2 0 .21.15.46.55.38A8.01 8.01 0 0 0 16 8c0-4.42-3.58-8-8-8"/>
  </svg>
</svg>